<svg width="1440" height="793" viewBox="0 0 1440 793" fill="none" xmlns="http://www.w3.org/2000/svg">
<path d="M0 694.342L60 636.48C120 578.618 240 462.894 360 443.728C480 423.114 600 502.674 720 597.785C840 694.342 960 810.065 1080 790.899C1200 770.285 1320 618.398 1380 539.923L1440 462.894V0H1380C1320 0 1200 0 1080 0C960 0 840 0 720 0C600 0 480 0 360 0C240 0 120 0 60 0H0V694.342Z" fill="url(#paint0_linear)"/>
<defs>
<linearGradient id="paint0_linear" x1="720" y1="0" x2="720" y2="793" gradientUnits="userSpaceOnUse">
<stop stop-color="#610F7F"/>
<stop offset="1" stop-color="#610F7F" stop-opacity="0.12"/>
</linearGradient>
</defs>
</svg>
